<?xml version="1.0" encoding="utf-8"?>
<!-- Generator: Adobe Illustrator 19.0.0, SVG Export Plug-In . SVG Version: 6.00 Build 0)  -->
<svg version="1.1" id="圖層_1" xmlns="http://www.w3.org/2000/svg" xmlns:xlink="http://www.w3.org/1999/xlink" x="0px" y="0px"
	 viewBox="0 0 20 16" style="enable-background:new 0 0 20 16;" xml:space="preserve">
<style type="text/css">
	.st0{fill:#C6341D;}
</style>
<g>
	<g>
		<g>
			<g>
				<path id="XMLID_3_" class="st0" d="M18.7,2.1H1.3c-0.5,0-0.8-0.4-0.8-0.8s0.4-0.8,0.8-0.8h17.3c0.5,0,0.8,0.4,0.8,0.8
					S19.1,2.1,18.7,2.1z"/>
			</g>
		</g>
	</g>
	<g>
		<g>
			<g>
				<g>
					<path id="XMLID_2_" class="st0" d="M18.7,8.8H1.3C0.9,8.8,0.5,8.5,0.5,8c0-0.5,0.4-0.8,0.8-0.8h17.3c0.5,0,0.8,0.4,0.8,0.8
						C19.5,8.5,19.1,8.8,18.7,8.8z"/>
				</g>
			</g>
		</g>
	</g>
	<g>
		<g>
			<g>
				<g>
					<path id="XMLID_1_" class="st0" d="M18.7,15.6H1.3c-0.5,0-0.8-0.4-0.8-0.8s0.4-0.8,0.8-0.8h17.3c0.5,0,0.8,0.4,0.8,0.8
						S19.1,15.6,18.7,15.6z"/>
				</g>
			</g>
		</g>
	</g>
</g>
</svg>
