<?xml version="1.0" encoding="utf-8"?>
<!-- Generator: Adobe Illustrator 19.0.0, SVG Export Plug-In . SVG Version: 6.00 Build 0)  -->
<svg version="1.1" id="圖層_1" xmlns="http://www.w3.org/2000/svg" xmlns:xlink="http://www.w3.org/1999/xlink" x="0px" y="0px"
	 viewBox="0 0 23 20" style="enable-background:new 0 0 23 20;" xml:space="preserve">
<style type="text/css">
	.st0{fill:#C6341D;}
	.st1{fill:#FFFFFF;}
	.st2{fill:#595757;}
</style>
<g>
	<g>
		<g>
			<g>
				<circle id="XMLID_5_" class="st0" cx="15.3" cy="18.1" r="1.6"/>
			</g>
		</g>
	</g>
	<g>
		<g>
			<g>
				<circle id="XMLID_4_" class="st0" cx="5.1" cy="18.1" r="1.6"/>
			</g>
		</g>
	</g>
	<g>
		<g>
			<g>
				<polyline id="XMLID_3_" class="st1" points="19.2,1.4 16.1,14.6 4.5,14.6 1.5,5.2 18.3,5.2 				"/>
			</g>
		</g>
	</g>
	<g>
		<g>
			<g>
				<path class="st2" d="M22.4,0.3h-3.1c-0.1,0-0.1,0-0.2,0c-0.4,0-0.9,0.3-1,0.8l-0.7,3.1H1.5c-0.3,0-0.6,0.2-0.8,0.4
					C0.5,4.9,0.4,5.2,0.5,5.5l2.9,9.3c0.1,0.4,0.5,0.7,1,0.7h11.6c0.5,0,0.9-0.3,1-0.8L20,2.4h1.4c0.6,0,1.1-0.5,1.1-1.1L22.4,0.3
					C22.5,0.4,22.5,0.3,22.4,0.3z M15.3,13.5h-10L3,6.3h14L15.3,13.5z"/>
			</g>
		</g>
	</g>
</g>
</svg>
