<?xml version="1.0" encoding="utf-8"?>
<!-- Generator: Adobe Illustrator 19.0.0, SVG Export Plug-In . SVG Version: 6.00 Build 0)  -->
<svg version="1.1" id="圖層_1" xmlns="http://www.w3.org/2000/svg" xmlns:xlink="http://www.w3.org/1999/xlink" x="0px" y="0px"
	 viewBox="0 0 18 20" style="enable-background:new 0 0 18 20;" xml:space="preserve">
<style type="text/css">
	.st0{fill:#FFFFFF;}
	.st1{fill:#595757;}
</style>
<g>
	<g>
		<g>
			<g>
				<path id="XMLID_6_" class="st0" d="M16.3,18.8c0.1-0.5,0.2-1.1,0.2-1.6v-1.5c0-4-3-7.4-6.8-7.4H8.3c-3.7,0-6.8,3.3-6.8,7.4v1.5
					c0,0.6,0.1,1.1,0.2,1.6H16.3z"/>
			</g>
		</g>
	</g>
	<g>
		<g>
			<g>
				<path class="st1" d="M16.3,19.8H1.7c-0.5,0-0.9-0.4-1-0.8c-0.1-0.6-0.2-1.2-0.2-1.8v-1.5c0-4.6,3.5-8.4,7.8-8.4h1.3
					c4.3,0,7.8,3.8,7.8,8.4v1.5c0,0.6-0.1,1.2-0.2,1.8C17.2,19.5,16.8,19.8,16.3,19.8z M2.6,17.7h12.7c0-0.2,0-0.4,0-0.6v-1.5
					c0-3.5-2.6-6.3-5.7-6.3H8.3c-3.2,0-5.7,2.8-5.7,6.3v1.5C2.6,17.3,2.6,17.5,2.6,17.7z"/>
			</g>
		</g>
	</g>
	<g>
		<g>
			<g>
				<ellipse id="XMLID_3_" class="st1" cx="9" cy="3.3" rx="2.4" ry="2.9"/>
			</g>
		</g>
	</g>
	<g>
		<g>
			<g>
				<path class="st1" d="M9,6.5c-1.5,0-2.7-1.4-2.7-3.1S7.5,0.2,9,0.2s2.7,1.4,2.7,3.1S10.5,6.5,9,6.5z M9,0.8
					c-1.2,0-2.1,1.1-2.1,2.6c0,1.4,0.9,2.6,2.1,2.6s2.1-1.1,2.1-2.6C11.1,1.9,10.2,0.8,9,0.8z"/>
			</g>
		</g>
	</g>
</g>
</svg>
