<?xml version="1.0" encoding="utf-8"?>
<!-- Generator: Adobe Illustrator 19.0.0, SVG Export Plug-In . SVG Version: 6.00 Build 0)  -->
<svg version="1.1" id="圖層_1" xmlns="http://www.w3.org/2000/svg" xmlns:xlink="http://www.w3.org/1999/xlink" x="0px" y="0px"
	 viewBox="0 0 25 25" style="enable-background:new 0 0 25 25;" xml:space="preserve">
<style type="text/css">
	.st0{fill:#595757;}
</style>
<g>
	<g>
		<g>
			<path class="st0" d="M19.9,24.5H5.1c-2.5,0-4.6-2.1-4.6-4.6V5.1c0-2.5,2.1-4.6,4.6-4.6h14.8c2.5,0,4.6,2.1,4.6,4.6v14.8
				C24.5,22.4,22.4,24.5,19.9,24.5z M5.1,3.3c-1,0-1.8,0.8-1.8,1.8v14.8c0,1,0.8,1.8,1.8,1.8h14.8c1,0,1.8-0.8,1.8-1.8V5.1
				c0-1-0.8-1.8-1.8-1.8H5.1z"/>
		</g>
	</g>
	<g>
		<g>
			<path id="XMLID_1_" class="st0" d="M10.3,22.7c0-0.5,0-1,0-1.6c0-2.1,0-4.2,0-6.3c-0.5,0-1,0-1.5,0c-0.2,0-0.3,0-0.3-0.2
				c0-0.9,0-1.7,0-2.6c0,0,0-0.1,0-0.1c0.5,0,1.1,0,1.7,0c0-0.2,0-0.3,0-0.4c0-0.8,0-1.6,0.1-2.4c0.2-1.5,1.1-2.4,2.6-2.6
				c1.1-0.1,2.3-0.1,3.5-0.1c0,1,0,1.9,0,2.8c0,0.1-0.2,0.2-0.2,0.2c-0.5,0-0.9,0-1.4,0c-0.7,0-1,0.2-1,1c0,0.5,0,1,0,1.6
				c0.5,0,0.9,0,1.3,0c0.4,0,0.9,0,1.3,0c-0.1,0.9-0.2,1.8-0.3,2.7c0,0.2-0.1,0.3-0.3,0.3c-0.7,0-1.3,0-2,0c0,0.1,0,0.3,0,0.4
				c0,2.4,0,4.8,0,7.2c0,0.1,0,0.2,0,0.3C12.6,22.7,11.4,22.7,10.3,22.7z"/>
		</g>
	</g>
</g>
</svg>
