<?xml version="1.0" encoding="utf-8"?>
<!-- Generator: Adobe Illustrator 19.0.0, SVG Export Plug-In . SVG Version: 6.00 Build 0)  -->
<svg version="1.1" id="圖層_1" xmlns="http://www.w3.org/2000/svg" xmlns:xlink="http://www.w3.org/1999/xlink" x="0px" y="0px"
	 viewBox="0 0 23 20" style="enable-background:new 0 0 23 20;" xml:space="preserve">
<style type="text/css">
	.st0{fill:#595757;}
	.st1{fill:#FFFFFF;}
</style>
<g>
	<g>
		<g>
			<g>
				<path id="XMLID_10_" class="st0" d="M18.3,1.4L18.3,1.4c0,0.6,0.5,1.1,1.1,1.1h2.1c0.6,0,1.1-0.5,1.1-1.1v-1c0,0,0-0.1-0.1-0.1
					h-3.1C18.7,0.3,18.3,0.8,18.3,1.4z"/>
			</g>
		</g>
	</g>
	<g>
		<g>
			<g>
				<circle id="XMLID_9_" class="st0" cx="15.3" cy="18.1" r="1.3"/>
			</g>
		</g>
	</g>
	<g>
		<g>
			<g>
				<path class="st0" d="M15.3,19.7c-0.9,0-1.6-0.7-1.6-1.6s0.7-1.6,1.6-1.6s1.6,0.7,1.6,1.6S16.2,19.7,15.3,19.7z M15.3,17.1
					c-0.5,0-1,0.4-1,1c0,0.5,0.4,1,1,1s1-0.4,1-1C16.3,17.6,15.9,17.1,15.3,17.1z"/>
			</g>
		</g>
	</g>
	<g>
		<g>
			<g>
				<circle id="XMLID_6_" class="st0" cx="5.1" cy="18.1" r="1.3"/>
			</g>
		</g>
	</g>
	<g>
		<g>
			<g>
				<path class="st0" d="M5.1,19.7c-0.9,0-1.6-0.7-1.6-1.6s0.7-1.6,1.6-1.6s1.6,0.7,1.6,1.6S6,19.7,5.1,19.7z M5.1,17.1
					c-0.5,0-1,0.4-1,1c0,0.5,0.4,1,1,1c0.5,0,1-0.4,1-1C6.1,17.6,5.6,17.1,5.1,17.1z"/>
			</g>
		</g>
	</g>
	<g>
		<g>
			<g>
				<polyline id="XMLID_3_" class="st1" points="19.2,1.4 16.1,14.6 4.5,14.6 1.5,5.2 18.3,5.2 				"/>
			</g>
		</g>
	</g>
	<g>
		<g>
			<g>
				<path class="st0" d="M16.1,15.6H4.5c-0.5,0-0.9-0.3-1-0.7L0.5,5.5c-0.1-0.3,0-0.7,0.2-0.9c0.2-0.3,0.5-0.4,0.8-0.4h15.9l0.7-3.1
					c0.1-0.6,0.7-0.9,1.2-0.8c0.6,0.1,0.9,0.7,0.8,1.2l-3.1,13.2C17,15.3,16.6,15.6,16.1,15.6z M5.2,13.5h10L17,6.3H3L5.2,13.5z"/>
			</g>
		</g>
	</g>
</g>
</svg>
