<?xml version="1.0" encoding="utf-8"?>
<!-- Generator: Adobe Illustrator 19.0.0, SVG Export Plug-In . SVG Version: 6.00 Build 0)  -->
<svg version="1.1" id="圖層_1" xmlns="http://www.w3.org/2000/svg" xmlns:xlink="http://www.w3.org/1999/xlink" x="0px" y="0px"
	 viewBox="0 0 25 25" style="enable-background:new 0 0 25 25;" xml:space="preserve">
<style type="text/css">
	.st0{fill:#C6341D;}
	.st1{fill:#FFFFFF;}
	.st2{fill:#595757;}
</style>
<g id="XMLID_6_">
	<g id="XMLID_17_">
		<g id="XMLID_18_">
			<g id="XMLID_19_">
				<path id="XMLID_20_" class="st0" d="M15.5,9.4l-0.2-0.2c-0.6-0.6-1.6-0.6-2.2,0L0.9,21.4c-0.6,0.6-0.6,1.6,0,2.2l1.2,1.2
					c0.1,0.1,0.1,0.1,0.2,0l13.2-13.2C16.1,11,16.1,10,15.5,9.4z"/>
			</g>
		</g>
	</g>
	<g id="XMLID_13_">
		<g id="XMLID_14_">
			<g id="XMLID_15_">
				<circle id="XMLID_16_" class="st1" cx="15.2" cy="9.5" r="7.6"/>
			</g>
		</g>
	</g>
	<g id="XMLID_7_">
		<g id="XMLID_8_">
			<g id="XMLID_9_">
				<path id="XMLID_10_" class="st2" d="M8.6,16.1c-3.6-3.6-3.6-9.6,0-13.2c3.6-3.6,9.6-3.6,13.2,0c3.6,3.6,3.6,9.6,0,13.2
					C18.1,19.8,12.2,19.8,8.6,16.1z M19.3,5.4c-2.3-2.3-6-2.3-8.3,0c-2.3,2.3-2.3,6,0,8.3c2.3,2.3,6,2.3,8.3,0
					C21.6,11.4,21.6,7.7,19.3,5.4z"/>
			</g>
		</g>
	</g>
</g>
</svg>
