<?xml version="1.0" encoding="utf-8"?>
<!-- Generator: Adobe Illustrator 19.0.0, SVG Export Plug-In . SVG Version: 6.00 Build 0)  -->
<svg version="1.1" id="圖層_1" xmlns="http://www.w3.org/2000/svg" xmlns:xlink="http://www.w3.org/1999/xlink" x="0px" y="0px"
	 viewBox="0 0 10 10" style="enable-background:new 0 0 10 10;" xml:space="preserve">
<style type="text/css">
	.st0{fill:#595757;}
</style>
<path class="st0" d="M9.8,5c0,0.4-0.2,0.5-0.5,0.5H5.5v3.7c0,0.4-0.2,0.5-0.5,0.5c-0.4,0-0.5-0.2-0.5-0.5V5.5H0.8
	C0.4,5.5,0.2,5.3,0.2,5c0-0.3,0.2-0.5,0.5-0.5h3.7V0.8c0-0.3,0.2-0.5,0.5-0.5c0.3,0,0.5,0.2,0.5,0.5v3.7h3.7C9.6,4.5,9.8,4.6,9.8,5z
	"/>
</svg>
