<?xml version="1.0" encoding="utf-8"?>
<!-- Generator: Adobe Illustrator 19.0.0, SVG Export Plug-In . SVG Version: 6.00 Build 0)  -->
<svg version="1.1" id="圖層_1" xmlns="http://www.w3.org/2000/svg" xmlns:xlink="http://www.w3.org/1999/xlink" x="0px" y="0px"
	 viewBox="0 0 20 20" style="enable-background:new 0 0 20 20;" xml:space="preserve">
<style type="text/css">
	.st0{fill:#C6341D;}
</style>
<g>
	<g>
		<g>
			<g>
				<path class="st0" d="M10,19.8c-5.4,0-9.8-4.4-9.8-9.8S4.6,0.2,10,0.2s9.8,4.4,9.8,9.8S15.4,19.8,10,19.8z M10,2
					c-4.4,0-8,3.6-8,8s3.6,8,8,8s8-3.6,8-8S14.4,2,10,2z"/>
			</g>
		</g>
	</g>
	<g>
		<g>
			<g>
				<path id="XMLID_2_" class="st0" d="M12.7,13.5c-0.2,0-0.5-0.1-0.6-0.3L6.7,8c-0.3-0.3-0.3-0.9,0-1.2c0.3-0.3,0.9-0.3,1.2,0
					l5.3,5.3c0.3,0.3,0.3,0.9,0,1.2C13.1,13.5,12.9,13.5,12.7,13.5z"/>
			</g>
		</g>
	</g>
	<g>
		<g>
			<g>
				<path id="XMLID_1_" class="st0" d="M7.3,13.5c-0.2,0-0.5-0.1-0.6-0.3c-0.3-0.3-0.3-0.9,0-1.2L12,6.7c0.3-0.3,0.9-0.3,1.2,0
					c0.3,0.3,0.3,0.9,0,1.2L8,13.3C7.8,13.5,7.6,13.5,7.3,13.5z"/>
			</g>
		</g>
	</g>
</g>
</svg>
