<?xml version="1.0" encoding="utf-8"?>
<!-- Generator: Adobe Illustrator 19.0.0, SVG Export Plug-In . SVG Version: 6.00 Build 0)  -->
<svg version="1.1" id="圖層_1" xmlns="http://www.w3.org/2000/svg" xmlns:xlink="http://www.w3.org/1999/xlink" x="0px" y="0px"
	 viewBox="0 0 25 25" style="enable-background:new 0 0 25 25;" xml:space="preserve">
<style type="text/css">
	.st0{fill:#595757;}
</style>
<g id="XMLID_10_">
	<g id="XMLID_19_">
		<g id="XMLID_20_">
			<path id="XMLID_21_" class="st0" d="M19.9,24.5H5.1c-2.5,0-4.6-2.1-4.6-4.6V5.1c0-2.5,2.1-4.6,4.6-4.6h14.8
				c2.5,0,4.6,2.1,4.6,4.6v14.8C24.5,22.4,22.4,24.5,19.9,24.5z M5.1,3.3c-1,0-1.8,0.8-1.8,1.8v14.8c0,1,0.8,1.8,1.8,1.8h14.8
				c1,0,1.8-0.8,1.8-1.8V5.1c0-1-0.8-1.8-1.8-1.8H5.1z"/>
		</g>
	</g>
	<g id="XMLID_14_">
		<g id="XMLID_15_">
			<path id="XMLID_16_" class="st0" d="M12.5,17.8c-2.4,0-4.6-1.7-5.1-4.1c-0.7-2.8,1.1-5.7,4-6.3c1.4-0.3,2.8-0.1,4,0.7
				s2,1.9,2.3,3.3l0,0c0.3,1.4,0.1,2.8-0.7,4s-1.9,2-3.3,2.3C13.3,17.7,12.9,17.8,12.5,17.8z M12.5,10c-0.2,0-0.4,0-0.6,0.1
				c-1.3,0.3-2.2,1.6-1.9,3c0.3,1.3,1.6,2.2,3,1.9c0.6-0.1,1.2-0.5,1.5-1.1c0.4-0.6,0.5-1.2,0.3-1.9c0,0,0,0,0,0
				c-0.1-0.6-0.5-1.2-1.1-1.5C13.4,10.1,13,10,12.5,10z"/>
		</g>
	</g>
	<g id="XMLID_11_">
		<g id="XMLID_12_">
			<path id="XMLID_4_" class="st0" d="M18.1,7.4L18.1,7.4c-0.7,0-1.2-0.5-1.2-1.2v0c0-0.7,0.5-1.2,1.2-1.2h0c0.7,0,1.2,0.5,1.2,1.2
				v0C19.3,6.9,18.8,7.4,18.1,7.4z"/>
		</g>
	</g>
</g>
</svg>
